<?xml version="1.0" encoding="UTF-8" standalone="no"?>
<!-- Created with Inkscape (http://www.inkscape.org/) -->

<svg
   xmlns:dc="http://purl.org/dc/elements/1.1/"
   xmlns:cc="http://creativecommons.org/ns#"
   xmlns:rdf="http://www.w3.org/1999/02/22-rdf-syntax-ns#"
   xmlns:svg="http://www.w3.org/2000/svg"
   xmlns="http://www.w3.org/2000/svg"
   xmlns:sodipodi="http://sodipodi.sourceforge.net/DTD/sodipodi-0.dtd"
   xmlns:inkscape="http://www.inkscape.org/namespaces/inkscape"
   width="227"
   height="227"
   viewBox="0 0 227.00001 227.00001"
   id="svg2"
   version="1.1"
   inkscape:version="0.91 r13725"
   sodipodi:docname="bullseye_avg.svg">
  <defs
     id="defs4">
    <clipPath
       id="clipPath4241"
       clipPathUnits="userSpaceOnUse">
      <path
         inkscape:connector-curvature="0"
         id="path4243"
         d="M 0,0 720,0 720,540 0,540 0,0 Z" />
    </clipPath>
  </defs>
  <sodipodi:namedview
     id="base"
     pagecolor="#ffffff"
     bordercolor="#666666"
     borderopacity="1.0"
     inkscape:pageopacity="0.0"
     inkscape:pageshadow="2"
     inkscape:zoom="1.4"
     inkscape:cx="-199.90208"
     inkscape:cy="237.69206"
     inkscape:document-units="px"
     inkscape:current-layer="layer1"
     showgrid="false"
     units="px"
     width="227mm"
     inkscape:window-width="1920"
     inkscape:window-height="955"
     inkscape:window-x="0"
     inkscape:window-y="1"
     inkscape:window-maximized="1" />
  <metadata
     id="metadata7">
    <rdf:RDF>
      <cc:Work
         rdf:about="">
        <dc:format>image/svg+xml</dc:format>
        <dc:type
           rdf:resource="http://purl.org/dc/dcmitype/StillImage" />
        <dc:title></dc:title>
      </cc:Work>
    </rdf:RDF>
  </metadata>
  <g
     inkscape:label="Layer 1"
     inkscape:groupmode="layer"
     id="layer1"
     transform="translate(0,-825.3622)">
    <g
       id="g4235"
       transform="matrix(1.25,0,0,-1.25,-270,875.57649)" />
    <g
       id="g5895"
       transform="translate(-142.92743,552.54079)">
      <path
         inkscape:connector-curvature="0"
         id="path4431"
         style="fill:#ffffff;fill-opacity:1;fill-rule:nonzero;stroke:none"
         d="m 143.58972,386.32426 c 0,-62.33763 50.51894,-112.87229 112.83735,-112.87229 62.31828,0 112.83737,50.53466 112.83737,112.87229 0,62.33761 -50.51909,112.87226 -112.83737,112.87226 -62.31841,0 -112.83735,-50.53465 -112.83735,-112.87226 z" />
      <g
         transform="matrix(1.0429737e-4,0,0,9.8409217e-5,143.58972,273.45197)"
         id="g4433">
        <path
           inkscape:connector-curvature="0"
           id="path4435"
           style="fill:none;stroke:#000000;stroke-width:12700;stroke-linecap:butt;stroke-linejoin:round;stroke-miterlimit:10;stroke-dasharray:none;stroke-opacity:1"
           d="M 0,1146969 C 0,513515.3 484374.6,0 1081881,0 c 597506,0 1081881,513515.3 1081881,1146969 0,633453 -484375,1146968 -1081881,1146968 C 484374.6,2293937 0,1780422 0,1146969 Z" />
      </g>
      <path
         inkscape:connector-curvature="0"
         id="path4437"
         style="fill:#ffffff;fill-opacity:1;fill-rule:nonzero;stroke:none"
         d="m 167.76324,386.32426 c 0,-50.86236 39.6961,-92.09441 88.66383,-92.09441 48.96761,0 88.66385,41.23205 88.66385,92.09441 0,50.86227 -39.69624,92.09434 -88.66385,92.09434 -48.96774,0 -88.66383,-41.23207 -88.66383,-92.09434 z" />
      <g
         transform="matrix(1.0429737e-4,0,0,9.8409217e-5,167.76324,294.22985)"
         id="g4439">
        <path
           inkscape:connector-curvature="0"
           id="path4441"
           style="fill:none;stroke:#000000;stroke-width:12700;stroke-linecap:butt;stroke-linejoin:round;stroke-miterlimit:10;stroke-dasharray:none;stroke-opacity:1"
           d="M 0,935831 C 0,418985.8 380605.4,0 850106,0 c 469500,0 850106,418985.8 850106,935831 0,516845 -380606,935831 -850106,935831 C 380605.4,1871662 0,1452676 0,935831 Z" />
      </g>
      <path
         inkscape:connector-curvature="0"
         id="path4443"
         style="fill:#ffffff;fill-opacity:1;fill-rule:nonzero;stroke:none"
         d="m 234.32321,386.24615 c 0,-10.26746 9.85921,-18.59073 22.02108,-18.59073 12.16186,0 22.02108,8.32327 22.02108,18.59073 0,10.26733 -9.85922,18.59073 -22.02108,18.59073 -12.16187,0 -22.02108,-8.3234 -22.02108,-18.59073 z" />
      <g
         transform="matrix(1.0429737e-4,0,0,9.8409217e-5,234.32321,367.65542)"
         id="g4445">
        <path
           inkscape:connector-curvature="0"
           id="path4447"
           style="fill:none;stroke:#000000;stroke-width:12700;stroke-linecap:butt;stroke-linejoin:round;stroke-miterlimit:10;stroke-dasharray:none;stroke-opacity:1"
           d="M 0,188912.5 C 0,84579.01 94529.48,0 211137.5,0 327745.5,0 422275,84579.01 422275,188912.5 422275,293246 327745.5,377825 211137.5,377825 94529.48,377825 0,293246 0,188912.5 Z" />
      </g>
      <g
         transform="matrix(1.0429737e-4,0,0,9.8409217e-5,187.63175,297.82301)"
         id="g4449">
        <path
           sodipodi:nodetypes="cc"
           inkscape:connector-curvature="0"
           id="path4451"
           style="fill:none;stroke:#000000;stroke-width:12700;stroke-linecap:butt;stroke-linejoin:round;stroke-miterlimit:10;stroke-dasharray:none;stroke-opacity:1"
           d="M -20545.649,-7258.3213 1357404.4,1763933.4" />
      </g>
      <g
         transform="matrix(-1.0429737e-4,0,0,9.8409217e-5,327.87142,298.76036)"
         id="g4453">
        <path
           sodipodi:nodetypes="cc"
           inkscape:connector-curvature="0"
           id="path4455"
           style="fill:none;stroke:#000000;stroke-width:12700;stroke-linecap:butt;stroke-linejoin:round;stroke-miterlimit:10;stroke-dasharray:none;stroke-opacity:1"
           d="M 0,0 1377950,1778450" />
      </g>
      <path
         inkscape:connector-curvature="0"
         id="path4457"
         style="fill:#ff0000;fill-opacity:1;fill-rule:nonzero;stroke:none"
         d="m 256.42707,380.97826 14.65817,0 0,-13.83064 8.84804,0 0,13.83064 14.65816,0 0,6.12225 -14.65816,0 0,13.83076 -8.84804,0 0,-13.83076 -14.65817,0 0,-6.12225 z" />
      <g
         transform="matrix(1.0429737e-4,0,0,9.8409217e-5,256.42707,367.14762)"
         id="g4459">
        <path
           inkscape:connector-curvature="0"
           id="path4461"
           style="fill:none;stroke:#385d8a;stroke-width:25400;stroke-linecap:butt;stroke-linejoin:miter;stroke-miterlimit:8;stroke-dasharray:none;stroke-opacity:1"
           d="m 0,140542.7 140542.7,0 0,-140542.7 84833.6,0 0,140542.7 140542.7,0 0,62212.6 -140542.7,0 0,140542.7 -84833.6,0 0,-140542.7 -140542.7,0 0,-62212.6 z" />
      </g>
    </g>
  </g>
</svg>
