<?xml version="1.0" encoding="UTF-8" standalone="no"?>
<!-- Created with Inkscape (http://www.inkscape.org/) -->

<svg
   xmlns:dc="http://purl.org/dc/elements/1.1/"
   xmlns:cc="http://creativecommons.org/ns#"
   xmlns:rdf="http://www.w3.org/1999/02/22-rdf-syntax-ns#"
   xmlns:svg="http://www.w3.org/2000/svg"
   xmlns="http://www.w3.org/2000/svg"
   xmlns:sodipodi="http://sodipodi.sourceforge.net/DTD/sodipodi-0.dtd"
   xmlns:inkscape="http://www.inkscape.org/namespaces/inkscape"
   width="227"
   height="227"
   viewBox="0 0 227 227"
   id="svg5336"
   version="1.1"
   inkscape:version="0.91 r13725"
   sodipodi:docname="bullseye_many.svg">
  <defs
     id="defs5338">
    <clipPath
       id="clipPath6002"
       clipPathUnits="userSpaceOnUse">
      <path
         inkscape:connector-curvature="0"
         id="path6004"
         d="M 0,0 720,0 720,540 0,540 0,0 Z" />
    </clipPath>
  </defs>
  <sodipodi:namedview
     id="base"
     pagecolor="#ffffff"
     bordercolor="#666666"
     borderopacity="1.0"
     inkscape:pageopacity="0.0"
     inkscape:pageshadow="2"
     inkscape:zoom="1.979899"
     inkscape:cx="101.11317"
     inkscape:cy="177.14286"
     inkscape:document-units="px"
     inkscape:current-layer="layer1"
     showgrid="false"
     units="px"
     inkscape:window-width="1920"
     inkscape:window-height="955"
     inkscape:window-x="139"
     inkscape:window-y="5"
     inkscape:window-maximized="0" />
  <metadata
     id="metadata5341">
    <rdf:RDF>
      <cc:Work
         rdf:about="">
        <dc:format>image/svg+xml</dc:format>
        <dc:type
           rdf:resource="http://purl.org/dc/dcmitype/StillImage" />
        <dc:title></dc:title>
      </cc:Work>
    </rdf:RDF>
  </metadata>
  <g
     inkscape:label="Layer 1"
     inkscape:groupmode="layer"
     id="layer1"
     transform="translate(0,-825.36216)">
    <g
       id="g6670"
       transform="matrix(1.0598423,0,0,0.99983722,580.59486,124.13549)">
      <path
         inkscape:connector-curvature="0"
         id="path6008"
         style="fill:#ffffff;fill-opacity:1;fill-rule:nonzero;stroke:none"
         d="m -547.1875,814.8622 c 0,-62.34775 47.67463,-112.89062 106.48438,-112.89062 58.80962,0 106.48437,50.54287 106.48437,112.89062 0,62.34775 -47.67475,112.8905 -106.48437,112.8905 -58.80975,0 -106.48438,-50.54275 -106.48438,-112.8905 z" />
      <g
         transform="matrix(9.84252e-5,0,0,9.84252e-5,-547.1875,701.97158)"
         id="g6010">
        <path
           inkscape:connector-curvature="0"
           id="path6012"
           style="fill:none;stroke:#000000;stroke-width:12700;stroke-linecap:butt;stroke-linejoin:round;stroke-miterlimit:10;stroke-dasharray:none;stroke-opacity:1"
           d="M 0,1146969 C 0,513515.3 484374.6,0 1081881,0 c 597506,0 1081881,513515.3 1081881,1146969 0,633453 -484375,1146968 -1081881,1146968 C 484374.6,2293937 0,1780422 0,1146969 Z" />
      </g>
      <path
         inkscape:connector-curvature="0"
         id="path6014"
         style="fill:#ffffff;fill-opacity:1;fill-rule:nonzero;stroke:none"
         d="m -524.375,814.86207 c 0,-50.87062 37.46113,-92.10937 83.67188,-92.10937 46.21062,0 83.67187,41.23875 83.67187,92.10937 0,50.87063 -37.46125,92.10938 -83.67187,92.10938 -46.21075,0 -83.67188,-41.23875 -83.67188,-92.10938 z" />
      <g
         transform="matrix(9.84252e-5,0,0,9.84252e-5,-524.375,722.7527)"
         id="g6016">
        <path
           inkscape:connector-curvature="0"
           id="path6018"
           style="fill:none;stroke:#000000;stroke-width:12700;stroke-linecap:butt;stroke-linejoin:round;stroke-miterlimit:10;stroke-dasharray:none;stroke-opacity:1"
           d="M 0,935831 C 0,418985.8 380605.4,0 850106,0 c 469500,0 850106,418985.8 850106,935831 0,516845 -380606,935831 -850106,935831 C 380605.4,1871662 0,1452676 0,935831 Z" />
      </g>
      <path
         inkscape:connector-curvature="0"
         id="path6020"
         style="fill:#ffffff;fill-opacity:1;fill-rule:nonzero;stroke:none"
         d="m -461.5625,814.78395 c 0,-10.269 9.30413,-18.59375 20.78125,-18.59375 11.47713,0 20.78125,8.32475 20.78125,18.59375 0,10.26913 -9.30412,18.59375 -20.78125,18.59375 -11.47712,0 -20.78125,-8.32462 -20.78125,-18.59375 z" />
      <g
         transform="matrix(9.84252e-5,0,0,9.84252e-5,-461.5625,796.1902)"
         id="g6022">
        <path
           inkscape:connector-curvature="0"
           id="path6024"
           style="fill:none;stroke:#000000;stroke-width:12700;stroke-linecap:butt;stroke-linejoin:round;stroke-miterlimit:10;stroke-dasharray:none;stroke-opacity:1"
           d="M 0,188912.5 C 0,84579.01 94529.48,0 211137.5,0 327745.5,0 422275,84579.01 422275,188912.5 422275,293246 327745.5,377825 211137.5,377825 94529.48,377825 0,293246 0,188912.5 Z" />
      </g>
      <g
         transform="matrix(9.84252e-5,0,0,9.84252e-5,-505.62512,726.34658)"
         id="g6026">
        <path
           sodipodi:nodetypes="cc"
           inkscape:connector-curvature="0"
           id="path6028"
           style="fill:none;stroke:#000000;stroke-width:12700;stroke-linecap:butt;stroke-linejoin:round;stroke-miterlimit:10;stroke-dasharray:none;stroke-opacity:1"
           d="M 0,0 1352292.1,1779698.7" />
      </g>
      <g
         transform="matrix(-9.84252e-5,0,0,9.84252e-5,-373.28125,727.28408)"
         id="g6030">
        <path
           sodipodi:nodetypes="cc"
           inkscape:connector-curvature="0"
           id="path6032"
           style="fill:none;stroke:#000000;stroke-width:12700;stroke-linecap:butt;stroke-linejoin:round;stroke-miterlimit:10;stroke-dasharray:none;stroke-opacity:1"
           d="M 0,0 1367686.9,1774567.1" />
      </g>
      <g
         transform="matrix(7.2585275e-5,-6.6474787e-5,6.6474787e-5,7.2585275e-5,-547.62275,793.79495)"
         id="g6034">
        <path
           sodipodi:nodetypes="cc"
           inkscape:connector-curvature="0"
           id="path6036"
           style="fill:none;stroke:#000000;stroke-width:12700;stroke-linecap:butt;stroke-linejoin:round;stroke-miterlimit:10;stroke-dasharray:none;stroke-opacity:1"
           d="M 7568.7281,6931.5655 1321184.5,1748238.3" />
      </g>
      <g
         transform="matrix(-7.2585275e-5,6.6474787e-5,6.6474787e-5,7.2585275e-5,-449.3905,705.10333)"
         id="g6038">
        <path
           sodipodi:nodetypes="cc"
           inkscape:connector-curvature="0"
           id="path6040"
           style="fill:none;stroke:#000000;stroke-width:12700;stroke-linecap:butt;stroke-linejoin:round;stroke-miterlimit:10;stroke-dasharray:none;stroke-opacity:1"
           d="M -32466.37,-5058.6892 1377950,1800225" />
      </g>
      <path
         inkscape:connector-curvature="0"
         id="path6042"
         style="fill:#ff0000;fill-opacity:1;fill-rule:nonzero;stroke:none"
         d="m -456.25,804.62783 c 0,-2.67513 2.02875,-4.84375 4.53125,-4.84375 2.5025,0 4.53125,2.16862 4.53125,4.84375 0,2.67512 -2.02875,4.84375 -4.53125,4.84375 -2.5025,0 -4.53125,-2.16863 -4.53125,-4.84375 z" />
      <g
         transform="matrix(9.84252e-5,0,0,9.84252e-5,-456.25,799.78408)"
         id="g6044">
        <path
           inkscape:connector-curvature="0"
           id="path6046"
           style="fill:none;stroke:#000000;stroke-width:12700;stroke-linecap:butt;stroke-linejoin:round;stroke-miterlimit:10;stroke-dasharray:none;stroke-opacity:1"
           d="M 0,49212.5 C 0,22033.19 20611.69,0 46037.5,0 71463.31,0 92075,22033.19 92075,49212.5 92075,76391.81 71463.31,98425 46037.5,98425 20611.69,98425 0,76391.81 0,49212.5 Z" />
      </g>
      <path
         inkscape:connector-curvature="0"
         id="path6048"
         style="fill:#ff0000;fill-opacity:1;fill-rule:nonzero;stroke:none"
         d="m -397.96875,809.94033 c 0,-2.67513 2.02863,-4.84375 4.53125,-4.84375 2.5025,0 4.53125,2.16862 4.53125,4.84375 0,2.67512 -2.02875,4.84375 -4.53125,4.84375 -2.50262,0 -4.53125,-2.16863 -4.53125,-4.84375 z" />
      <g
         transform="matrix(9.84252e-5,0,0,9.84252e-5,-397.96875,805.09658)"
         id="g6050">
        <path
           inkscape:connector-curvature="0"
           id="path6052"
           style="fill:none;stroke:#000000;stroke-width:12700;stroke-linecap:butt;stroke-linejoin:round;stroke-miterlimit:10;stroke-dasharray:none;stroke-opacity:1"
           d="M 0,49212.5 C 0,22033.19 20611.69,0 46037.5,0 71463.31,0 92075,22033.19 92075,49212.5 92075,76391.81 71463.31,98425 46037.5,98425 20611.69,98425 0,76391.81 0,49212.5 Z" />
      </g>
      <path
         inkscape:connector-curvature="0"
         id="path6054"
         style="fill:#ff0000;fill-opacity:1;fill-rule:nonzero;stroke:none"
         d="m -419.53125,740.40895 c 0,-2.67512 2.02863,-4.84375 4.53125,-4.84375 2.5025,0 4.53125,2.16863 4.53125,4.84375 0,2.67513 -2.02875,4.84375 -4.53125,4.84375 -2.50262,0 -4.53125,-2.16862 -4.53125,-4.84375 z" />
      <g
         transform="matrix(9.84252e-5,0,0,9.84252e-5,-419.53125,735.5652)"
         id="g6056">
        <path
           inkscape:connector-curvature="0"
           id="path6058"
           style="fill:none;stroke:#000000;stroke-width:12700;stroke-linecap:butt;stroke-linejoin:round;stroke-miterlimit:10;stroke-dasharray:none;stroke-opacity:1"
           d="M 0,49212.5 C 0,22033.19 20611.69,0 46037.5,0 71463.31,0 92075,22033.19 92075,49212.5 92075,76391.81 71463.31,98425 46037.5,98425 20611.69,98425 0,76391.81 0,49212.5 Z" />
      </g>
      <path
         inkscape:connector-curvature="0"
         id="path6060"
         style="fill:#ff0000;fill-opacity:1;fill-rule:nonzero;stroke:none"
         d="m -401.875,867.28395 c 0,-2.67512 2.02875,-4.84375 4.53125,-4.84375 2.5025,0 4.53125,2.16863 4.53125,4.84375 0,2.67513 -2.02875,4.84375 -4.53125,4.84375 -2.5025,0 -4.53125,-2.16862 -4.53125,-4.84375 z" />
      <g
         transform="matrix(9.84252e-5,0,0,9.84252e-5,-401.875,862.4402)"
         id="g6062">
        <path
           inkscape:connector-curvature="0"
           id="path6064"
           style="fill:none;stroke:#000000;stroke-width:12700;stroke-linecap:butt;stroke-linejoin:round;stroke-miterlimit:10;stroke-dasharray:none;stroke-opacity:1"
           d="M 0,49212.5 C 0,22033.19 20611.69,0 46037.5,0 71463.31,0 92075,22033.19 92075,49212.5 92075,76391.81 71463.31,98425 46037.5,98425 20611.69,98425 0,76391.81 0,49212.5 Z" />
      </g>
      <path
         inkscape:connector-curvature="0"
         id="path6066"
         style="fill:#ff0000;fill-opacity:1;fill-rule:nonzero;stroke:none"
         d="m -499.375,810.09645 c 0,-2.67512 2.02875,-4.84375 4.53125,-4.84375 2.5025,0 4.53125,2.16863 4.53125,4.84375 0,2.67513 -2.02875,4.84375 -4.53125,4.84375 -2.5025,0 -4.53125,-2.16862 -4.53125,-4.84375 z" />
      <g
         transform="matrix(9.84252e-5,0,0,9.84252e-5,-499.375,805.2527)"
         id="g6068">
        <path
           inkscape:connector-curvature="0"
           id="path6070"
           style="fill:none;stroke:#000000;stroke-width:12700;stroke-linecap:butt;stroke-linejoin:round;stroke-miterlimit:10;stroke-dasharray:none;stroke-opacity:1"
           d="M 0,49212.5 C 0,22033.19 20611.69,0 46037.5,0 71463.31,0 92075,22033.19 92075,49212.5 92075,76391.81 71463.31,98425 46037.5,98425 20611.69,98425 0,76391.81 0,49212.5 Z" />
      </g>
      <path
         inkscape:connector-curvature="0"
         id="path6072"
         style="fill:#ff0000;fill-opacity:1;fill-rule:nonzero;stroke:none"
         d="m -464.84375,787.3622 c 0,-2.67512 2.02875,-4.84375 4.53125,-4.84375 2.50262,0 4.53125,2.16863 4.53125,4.84375 0,2.67512 -2.02863,4.84375 -4.53125,4.84375 -2.5025,0 -4.53125,-2.16863 -4.53125,-4.84375 z" />
      <g
         transform="matrix(9.84252e-5,0,0,9.84252e-5,-464.84375,782.51845)"
         id="g6074">
        <path
           inkscape:connector-curvature="0"
           id="path6076"
           style="fill:none;stroke:#000000;stroke-width:12700;stroke-linecap:butt;stroke-linejoin:round;stroke-miterlimit:10;stroke-dasharray:none;stroke-opacity:1"
           d="M 0,49212.5 C 0,22033.19 20611.69,0 46037.5,0 71463.31,0 92075,22033.19 92075,49212.5 92075,76391.81 71463.31,98425 46037.5,98425 20611.69,98425 0,76391.81 0,49212.5 Z" />
      </g>
      <path
         inkscape:connector-curvature="0"
         id="path6078"
         style="fill:#ff0000;fill-opacity:1;fill-rule:nonzero;stroke:none"
         d="m -367.5,792.6747 c 0,-2.67512 2.02875,-4.84375 4.53125,-4.84375 2.5025,0 4.53125,2.16863 4.53125,4.84375 0,2.67512 -2.02875,4.84375 -4.53125,4.84375 -2.5025,0 -4.53125,-2.16863 -4.53125,-4.84375 z" />
      <g
         transform="matrix(9.84252e-5,0,0,9.84252e-5,-367.5,787.83095)"
         id="g6080">
        <path
           inkscape:connector-curvature="0"
           id="path6082"
           style="fill:none;stroke:#000000;stroke-width:12700;stroke-linecap:butt;stroke-linejoin:round;stroke-miterlimit:10;stroke-dasharray:none;stroke-opacity:1"
           d="M 0,49212.5 C 0,22033.19 20611.69,0 46037.5,0 71463.31,0 92075,22033.19 92075,49212.5 92075,76391.81 71463.31,98425 46037.5,98425 20611.69,98425 0,76391.81 0,49212.5 Z" />
      </g>
      <path
         inkscape:connector-curvature="0"
         id="path6084"
         style="fill:#ff0000;fill-opacity:1;fill-rule:nonzero;stroke:none"
         d="m -444.0625,829.70595 c 0,-2.67512 2.02875,-4.84375 4.53125,-4.84375 2.5025,0 4.53125,2.16863 4.53125,4.84375 0,2.67512 -2.02875,4.84375 -4.53125,4.84375 -2.5025,0 -4.53125,-2.16863 -4.53125,-4.84375 z" />
      <g
         transform="matrix(9.84252e-5,0,0,9.84252e-5,-444.0625,824.8622)"
         id="g6086">
        <path
           inkscape:connector-curvature="0"
           id="path6088"
           style="fill:none;stroke:#000000;stroke-width:12700;stroke-linecap:butt;stroke-linejoin:round;stroke-miterlimit:10;stroke-dasharray:none;stroke-opacity:1"
           d="M 0,49212.5 C 0,22033.19 20611.69,0 46037.5,0 71463.31,0 92075,22033.19 92075,49212.5 92075,76391.81 71463.31,98425 46037.5,98425 20611.69,98425 0,76391.81 0,49212.5 Z" />
      </g>
      <path
         inkscape:connector-curvature="0"
         id="path6090"
         style="fill:#ff0000;fill-opacity:1;fill-rule:nonzero;stroke:none"
         d="m -410.46875,850.01845 c 0,-2.67512 2.02875,-4.84375 4.53125,-4.84375 2.50262,0 4.53125,2.16863 4.53125,4.84375 0,2.67512 -2.02863,4.84375 -4.53125,4.84375 -2.5025,0 -4.53125,-2.16863 -4.53125,-4.84375 z" />
      <g
         transform="matrix(9.84252e-5,0,0,9.84252e-5,-410.46875,845.1747)"
         id="g6092">
        <path
           inkscape:connector-curvature="0"
           id="path6094"
           style="fill:none;stroke:#000000;stroke-width:12700;stroke-linecap:butt;stroke-linejoin:round;stroke-miterlimit:10;stroke-dasharray:none;stroke-opacity:1"
           d="M 0,49212.5 C 0,22033.19 20611.69,0 46037.5,0 71463.31,0 92075,22033.19 92075,49212.5 92075,76391.81 71463.31,98425 46037.5,98425 20611.69,98425 0,76391.81 0,49212.5 Z" />
      </g>
      <path
         inkscape:connector-curvature="0"
         id="path6096"
         style="fill:#ff0000;fill-opacity:1;fill-rule:nonzero;stroke:none"
         d="m -459.0625,859.70595 c 0,-2.67512 2.02875,-4.84375 4.53125,-4.84375 2.5025,0 4.53125,2.16863 4.53125,4.84375 0,2.67512 -2.02875,4.84375 -4.53125,4.84375 -2.5025,0 -4.53125,-2.16863 -4.53125,-4.84375 z" />
      <g
         transform="matrix(9.84252e-5,0,0,9.84252e-5,-459.0625,854.8622)"
         id="g6098">
        <path
           inkscape:connector-curvature="0"
           id="path6100"
           style="fill:none;stroke:#000000;stroke-width:12700;stroke-linecap:butt;stroke-linejoin:round;stroke-miterlimit:10;stroke-dasharray:none;stroke-opacity:1"
           d="M 0,49212.5 C 0,22033.19 20611.69,0 46037.5,0 71463.31,0 92075,22033.19 92075,49212.5 92075,76391.81 71463.31,98425 46037.5,98425 20611.69,98425 0,76391.81 0,49212.5 Z" />
      </g>
      <path
         inkscape:connector-curvature="0"
         id="path6102"
         style="fill:#ff0000;fill-opacity:1;fill-rule:nonzero;stroke:none"
         d="m -476.5585,841.90233 c -1.90063,-1.8825 -2.01375,-4.85001 -0.25275,-6.628 1.76113,-1.778 4.7295,-1.69325 6.63013,0.18937 1.90062,1.8825 2.01375,4.85 0.25274,6.628 -1.76112,1.778 -4.72949,1.69325 -6.63012,-0.18937 z" />
      <g
         transform="matrix(6.9263588e-5,-6.9929075e-5,6.9929075e-5,6.9263588e-5,-479.99988,838.4937)"
         id="g6104">
        <path
           inkscape:connector-curvature="0"
           id="path6106"
           style="fill:none;stroke:#000000;stroke-width:12700;stroke-linecap:butt;stroke-linejoin:round;stroke-miterlimit:10;stroke-dasharray:none;stroke-opacity:1"
           d="M 0,49212.5 C 0,22033.19 20611.69,0 46037.5,0 71463.31,0 92075,22033.19 92075,49212.5 92075,76391.81 71463.31,98425 46037.5,98425 20611.69,98425 0,76391.81 0,49212.5 Z" />
      </g>
      <path
         inkscape:connector-curvature="0"
         id="path6108"
         style="fill:#ff0000;fill-opacity:1;fill-rule:nonzero;stroke:none"
         d="m -469.9285,810.02895 c -1.90062,-1.8825 -2.01375,-4.85 -0.25262,-6.628 1.76112,-1.778 4.7295,-1.69325 6.63012,0.18925 1.90063,1.88263 2.01375,4.85 0.25263,6.628 -1.761,1.778 -4.7295,1.69325 -6.63013,-0.18925 z" />
      <g
         transform="matrix(6.9263588e-5,-6.9929075e-5,6.9929075e-5,6.9263588e-5,-473.36987,806.62033)"
         id="g6110">
        <path
           inkscape:connector-curvature="0"
           id="path6112"
           style="fill:none;stroke:#000000;stroke-width:12700;stroke-linecap:butt;stroke-linejoin:round;stroke-miterlimit:10;stroke-dasharray:none;stroke-opacity:1"
           d="M 0,49212.5 C 0,22033.19 20611.69,0 46037.5,0 71463.31,0 92075,22033.19 92075,49212.5 92075,76391.81 71463.31,98425 46037.5,98425 20611.69,98425 0,76391.81 0,49212.5 Z" />
      </g>
      <path
         inkscape:connector-curvature="0"
         id="path6114"
         style="fill:#ff0000;fill-opacity:1;fill-rule:nonzero;stroke:none"
         d="m -413.731,804.70958 c -1.90063,-1.8825 -2.01375,-4.85 -0.25262,-6.628 1.761,-1.778 4.72937,-1.69325 6.62999,0.18925 1.90063,1.88249 2.01376,4.85 0.25276,6.628 -1.76113,1.77799 -4.7295,1.69325 -6.63013,-0.18925 z" />
      <g
         transform="matrix(6.9263588e-5,-6.9929075e-5,6.9929075e-5,6.9263588e-5,-417.17238,801.30095)"
         id="g6116">
        <path
           inkscape:connector-curvature="0"
           id="path6118"
           style="fill:none;stroke:#000000;stroke-width:12700;stroke-linecap:butt;stroke-linejoin:round;stroke-miterlimit:10;stroke-dasharray:none;stroke-opacity:1"
           d="M 0,49212.5 C 0,22033.19 20611.69,0 46037.5,0 71463.31,0 92075,22033.19 92075,49212.5 92075,76391.81 71463.31,98425 46037.5,98425 20611.69,98425 0,76391.81 0,49212.5 Z" />
      </g>
      <path
         inkscape:connector-curvature="0"
         id="path6120"
         style="fill:#ff0000;fill-opacity:1;fill-rule:nonzero;stroke:none"
         d="m -431.93587,853.15808 c -1.9005,-1.8825 -2.01363,-4.85 -0.25263,-6.628 1.76113,-1.778 4.7295,-1.69325 6.63013,0.18925 1.90062,1.88262 2.01375,4.85 0.25262,6.628 -1.761,1.778 -4.7295,1.69325 -6.63012,-0.18925 z" />
      <g
         transform="matrix(6.9263588e-5,-6.9929075e-5,6.9929075e-5,6.9263588e-5,-435.37725,849.74945)"
         id="g6122">
        <path
           inkscape:connector-curvature="0"
           id="path6124"
           style="fill:none;stroke:#000000;stroke-width:12700;stroke-linecap:butt;stroke-linejoin:round;stroke-miterlimit:10;stroke-dasharray:none;stroke-opacity:1"
           d="M 0,49212.5 C 0,22033.19 20611.69,0 46037.5,0 71463.31,0 92075,22033.19 92075,49212.5 92075,76391.81 71463.31,98425 46037.5,98425 20611.69,98425 0,76391.81 0,49212.5 Z" />
      </g>
      <path
         inkscape:connector-curvature="0"
         id="path6126"
         style="fill:#ff0000;fill-opacity:1;fill-rule:nonzero;stroke:none"
         d="m -407.101,918.95357 c -1.90062,-1.88249 -2.01375,-4.84999 -0.25262,-6.62799 1.761,-1.778 4.7295,-1.69325 6.63012,0.18925 1.90063,1.8825 2.01375,4.85 0.25263,6.628 -1.76113,1.778 -4.7295,1.69325 -6.63013,-0.18926 z" />
      <g
         transform="matrix(6.9263588e-5,-6.9929075e-5,6.9929075e-5,6.9263588e-5,-410.54237,915.54495)"
         id="g6128">
        <path
           inkscape:connector-curvature="0"
           id="path6130"
           style="fill:none;stroke:#000000;stroke-width:12700;stroke-linecap:butt;stroke-linejoin:round;stroke-miterlimit:10;stroke-dasharray:none;stroke-opacity:1"
           d="M 0,49212.5 C 0,22033.19 20611.69,0 46037.5,0 71463.31,0 92075,22033.19 92075,49212.5 92075,76391.81 71463.31,98425 46037.5,98425 20611.69,98425 0,76391.81 0,49212.5 Z" />
      </g>
      <path
         inkscape:connector-curvature="0"
         id="path6132"
         style="fill:#ff0000;fill-opacity:1;fill-rule:nonzero;stroke:none"
         d="m -458.28125,841.4247 c 0,-2.67512 2.02875,-4.84375 4.53125,-4.84375 2.50262,0 4.53125,2.16863 4.53125,4.84375 0,2.67512 -2.02863,4.84375 -4.53125,4.84375 -2.5025,0 -4.53125,-2.16863 -4.53125,-4.84375 z" />
      <g
         transform="matrix(9.84252e-5,0,0,9.84252e-5,-458.28125,836.58095)"
         id="g6134">
        <path
           inkscape:connector-curvature="0"
           id="path6136"
           style="fill:none;stroke:#000000;stroke-width:12700;stroke-linecap:butt;stroke-linejoin:round;stroke-miterlimit:10;stroke-dasharray:none;stroke-opacity:1"
           d="M 0,49212.5 C 0,22033.19 20611.69,0 46037.5,0 71463.31,0 92075,22033.19 92075,49212.5 92075,76391.81 71463.31,98425 46037.5,98425 20611.69,98425 0,76391.81 0,49212.5 Z" />
      </g>
      <path
         inkscape:connector-curvature="0"
         id="path6138"
         style="fill:#ff0000;fill-opacity:1;fill-rule:nonzero;stroke:none"
         d="m -435.15625,807.87695 c 0,-2.67512 2.02863,-4.84375 4.53125,-4.84375 2.5025,0 4.53125,2.16863 4.53125,4.84375 0,2.67513 -2.02875,4.84375 -4.53125,4.84375 -2.50262,0 -4.53125,-2.16862 -4.53125,-4.84375 z" />
      <g
         transform="matrix(9.84252e-5,0,0,9.84252e-5,-435.15625,803.0332)"
         id="g6140">
        <path
           inkscape:connector-curvature="0"
           id="path6142"
           style="fill:none;stroke:#000000;stroke-width:12700;stroke-linecap:butt;stroke-linejoin:round;stroke-miterlimit:10;stroke-dasharray:none;stroke-opacity:1"
           d="M 0,49212.5 C 0,22033.19 20611.69,0 46037.5,0 71463.31,0 92075,22033.19 92075,49212.5 92075,76391.81 71463.31,98425 46037.5,98425 20611.69,98425 0,76391.81 0,49212.5 Z" />
      </g>
      <path
         inkscape:connector-curvature="0"
         id="path6144"
         style="fill:#ff0000;fill-opacity:1;fill-rule:nonzero;stroke:none"
         d="m -421.5625,790.01845 c 0,-2.67512 2.02875,-4.84375 4.53125,-4.84375 2.5025,0 4.53125,2.16863 4.53125,4.84375 0,2.67512 -2.02875,4.84375 -4.53125,4.84375 -2.5025,0 -4.53125,-2.16863 -4.53125,-4.84375 z" />
      <g
         transform="matrix(9.84252e-5,0,0,9.84252e-5,-421.5625,785.1747)"
         id="g6146">
        <path
           inkscape:connector-curvature="0"
           id="path6148"
           style="fill:none;stroke:#000000;stroke-width:12700;stroke-linecap:butt;stroke-linejoin:round;stroke-miterlimit:10;stroke-dasharray:none;stroke-opacity:1"
           d="M 0,49212.5 C 0,22033.19 20611.69,0 46037.5,0 71463.31,0 92075,22033.19 92075,49212.5 92075,76391.81 71463.31,98425 46037.5,98425 20611.69,98425 0,76391.81 0,49212.5 Z" />
      </g>
      <path
         inkscape:connector-curvature="0"
         id="path6150"
         style="fill:#ff0000;fill-opacity:1;fill-rule:nonzero;stroke:none"
         d="m -467.34375,808.0792 c 0,-2.67512 2.02875,-4.84375 4.53125,-4.84375 2.50262,0 4.53125,2.16863 4.53125,4.84375 0,2.67513 -2.02863,4.84375 -4.53125,4.84375 -2.5025,0 -4.53125,-2.16862 -4.53125,-4.84375 z" />
      <g
         transform="matrix(9.84252e-5,0,0,9.84252e-5,-467.34375,803.23545)"
         id="g6152">
        <path
           inkscape:connector-curvature="0"
           id="path6154"
           style="fill:none;stroke:#000000;stroke-width:12700;stroke-linecap:butt;stroke-linejoin:round;stroke-miterlimit:10;stroke-dasharray:none;stroke-opacity:1"
           d="M 0,49212.5 C 0,22033.19 20611.69,0 46037.5,0 71463.31,0 92075,22033.19 92075,49212.5 92075,76391.81 71463.31,98425 46037.5,98425 20611.69,98425 0,76391.81 0,49212.5 Z" />
      </g>
      <path
         inkscape:connector-curvature="0"
         id="path6156"
         style="fill:#ff0000;fill-opacity:1;fill-rule:nonzero;stroke:none"
         d="m -426.09375,830.3952 c 0,-2.67513 2.02863,-4.84375 4.53125,-4.84375 2.5025,0 4.53125,2.16862 4.53125,4.84375 0,2.67513 -2.02875,4.84375 -4.53125,4.84375 -2.50262,0 -4.53125,-2.16862 -4.53125,-4.84375 z" />
      <g
         transform="matrix(9.84252e-5,0,0,9.84252e-5,-426.09375,825.55145)"
         id="g6158">
        <path
           inkscape:connector-curvature="0"
           id="path6160"
           style="fill:none;stroke:#000000;stroke-width:12700;stroke-linecap:butt;stroke-linejoin:round;stroke-miterlimit:10;stroke-dasharray:none;stroke-opacity:1"
           d="M 0,49212.5 C 0,22033.19 20611.69,0 46037.5,0 71463.31,0 92075,22033.19 92075,49212.5 92075,76391.81 71463.31,98425 46037.5,98425 20611.69,98425 0,76391.81 0,49212.5 Z" />
      </g>
      <path
         inkscape:connector-curvature="0"
         id="path6162"
         style="fill:#ff0000;fill-opacity:1;fill-rule:nonzero;stroke:none"
         d="m -511.5625,842.51845 c 0,-2.67512 2.02875,-4.84375 4.53125,-4.84375 2.5025,0 4.53125,2.16863 4.53125,4.84375 0,2.67512 -2.02875,4.84375 -4.53125,4.84375 -2.5025,0 -4.53125,-2.16863 -4.53125,-4.84375 z" />
      <g
         transform="matrix(9.84252e-5,0,0,9.84252e-5,-511.5625,837.6747)"
         id="g6164">
        <path
           inkscape:connector-curvature="0"
           id="path6166"
           style="fill:none;stroke:#000000;stroke-width:12700;stroke-linecap:butt;stroke-linejoin:round;stroke-miterlimit:10;stroke-dasharray:none;stroke-opacity:1"
           d="M 0,49212.5 C 0,22033.19 20611.69,0 46037.5,0 71463.31,0 92075,22033.19 92075,49212.5 92075,76391.81 71463.31,98425 46037.5,98425 20611.69,98425 0,76391.81 0,49212.5 Z" />
      </g>
      <path
         inkscape:connector-curvature="0"
         id="path6168"
         style="fill:#ff0000;fill-opacity:1;fill-rule:nonzero;stroke:none"
         d="m -406.5625,831.7372 c 0,-2.67512 2.02875,-4.84375 4.53125,-4.84375 2.5025,0 4.53125,2.16863 4.53125,4.84375 0,2.67512 -2.02875,4.84375 -4.53125,4.84375 -2.5025,0 -4.53125,-2.16863 -4.53125,-4.84375 z" />
      <g
         transform="matrix(9.84252e-5,0,0,9.84252e-5,-406.5625,826.89345)"
         id="g6170">
        <path
           inkscape:connector-curvature="0"
           id="path6172"
           style="fill:none;stroke:#000000;stroke-width:12700;stroke-linecap:butt;stroke-linejoin:round;stroke-miterlimit:10;stroke-dasharray:none;stroke-opacity:1"
           d="M 0,49212.5 C 0,22033.19 20611.69,0 46037.5,0 71463.31,0 92075,22033.19 92075,49212.5 92075,76391.81 71463.31,98425 46037.5,98425 20611.69,98425 0,76391.81 0,49212.5 Z" />
      </g>
      <path
         inkscape:connector-curvature="0"
         id="path6174"
         style="fill:#ff0000;fill-opacity:1;fill-rule:nonzero;stroke:none"
         d="m -428.125,762.20595 c 0,-2.67512 2.02875,-4.84375 4.53125,-4.84375 2.5025,0 4.53125,2.16863 4.53125,4.84375 0,2.67512 -2.02875,4.84375 -4.53125,4.84375 -2.5025,0 -4.53125,-2.16863 -4.53125,-4.84375 z" />
      <g
         transform="matrix(9.84252e-5,0,0,9.84252e-5,-428.125,757.3622)"
         id="g6176">
        <path
           inkscape:connector-curvature="0"
           id="path6178"
           style="fill:none;stroke:#000000;stroke-width:12700;stroke-linecap:butt;stroke-linejoin:round;stroke-miterlimit:10;stroke-dasharray:none;stroke-opacity:1"
           d="M 0,49212.5 C 0,22033.19 20611.69,0 46037.5,0 71463.31,0 92075,22033.19 92075,49212.5 92075,76391.81 71463.31,98425 46037.5,98425 20611.69,98425 0,76391.81 0,49212.5 Z" />
      </g>
      <path
         inkscape:connector-curvature="0"
         id="path6180"
         style="fill:#ff0000;fill-opacity:1;fill-rule:nonzero;stroke:none"
         d="m -437.50925,816.10295 c 0,-2.67513 2.02875,-4.84375 4.53125,-4.84375 2.5025,0 4.53125,2.16862 4.53125,4.84375 0,2.67513 -2.02875,4.84375 -4.53125,4.84375 -2.5025,0 -4.53125,-2.16862 -4.53125,-4.84375 z" />
      <g
         transform="matrix(9.84252e-5,0,0,9.84252e-5,-437.50925,811.2592)"
         id="g6182">
        <path
           inkscape:connector-curvature="0"
           id="path6184"
           style="fill:none;stroke:#000000;stroke-width:12700;stroke-linecap:butt;stroke-linejoin:round;stroke-miterlimit:10;stroke-dasharray:none;stroke-opacity:1"
           d="M 0,49212.5 C 0,22033.19 20611.69,0 46037.5,0 71463.31,0 92075,22033.19 92075,49212.5 92075,76391.81 71463.31,98425 46037.5,98425 20611.69,98425 0,76391.81 0,49212.5 Z" />
      </g>
      <path
         inkscape:connector-curvature="0"
         id="path6186"
         style="fill:#ff0000;fill-opacity:1;fill-rule:nonzero;stroke:none"
         d="m -440.03687,841.4247 c 0,-2.67512 2.02862,-4.84375 4.53125,-4.84375 2.5025,0 4.53125,2.16863 4.53125,4.84375 0,2.67512 -2.02875,4.84375 -4.53125,4.84375 -2.50263,0 -4.53125,-2.16863 -4.53125,-4.84375 z" />
      <g
         transform="matrix(9.84252e-5,0,0,9.84252e-5,-440.03687,836.58095)"
         id="g6188">
        <path
           inkscape:connector-curvature="0"
           id="path6190"
           style="fill:none;stroke:#000000;stroke-width:12700;stroke-linecap:butt;stroke-linejoin:round;stroke-miterlimit:10;stroke-dasharray:none;stroke-opacity:1"
           d="M 0,49212.5 C 0,22033.19 20611.69,0 46037.5,0 71463.31,0 92075,22033.19 92075,49212.5 92075,76391.81 71463.31,98425 46037.5,98425 20611.69,98425 0,76391.81 0,49212.5 Z" />
      </g>
    </g>
  </g>
</svg>
