<?xml version="1.0" encoding="UTF-8" standalone="no"?>
<svg
   xmlns:dc="http://purl.org/dc/elements/1.1/"
   xmlns:cc="http://creativecommons.org/ns#"
   xmlns:rdf="http://www.w3.org/1999/02/22-rdf-syntax-ns#"
   xmlns:svg="http://www.w3.org/2000/svg"
   xmlns="http://www.w3.org/2000/svg"
   xmlns:sodipodi="http://sodipodi.sourceforge.net/DTD/sodipodi-0.dtd"
   xmlns:inkscape="http://www.inkscape.org/namespaces/inkscape"
   version="1.0"
   width="108mm"
   height="46mm"
   id="svg2"
   inkscape:version="0.91 r13725"
   viewBox="0 0 108 46"
   sodipodi:docname="JumpRope1stHar.svg">
  <metadata
     id="metadata85">
    <rdf:RDF>
      <cc:Work
         rdf:about="">
        <dc:format>image/svg+xml</dc:format>
        <dc:type
           rdf:resource="http://purl.org/dc/dcmitype/StillImage" />
        <dc:title></dc:title>
      </cc:Work>
    </rdf:RDF>
  </metadata>
  <sodipodi:namedview
     pagecolor="#ffffff"
     bordercolor="#666666"
     borderopacity="1"
     objecttolerance="10"
     gridtolerance="10"
     guidetolerance="10"
     inkscape:pageopacity="0"
     inkscape:pageshadow="2"
     inkscape:window-width="1182"
     inkscape:window-height="679"
     id="namedview83"
     inkscape:document-units="mm"
     showgrid="false"
     inkscape:zoom="2.8284271"
     inkscape:cx="161.37644"
     inkscape:cy="83.921589"
     inkscape:window-x="0"
     inkscape:window-y="0"
     inkscape:window-maximized="0"
     inkscape:current-layer="svg2" />
  <defs
     id="defs4">
    <clipPath
       clipPathUnits="userSpaceOnUse"
       id="clipWmfPath1">
      <path
         d="m 0,0 450,0 0,337.5 -450,0 z"
         id="path7"
         inkscape:connector-curvature="0" />
    </clipPath>
    <clipPath
       clipPathUnits="userSpaceOnUse"
       id="clipWmfPath2">
      <path
         d="m 0,0 0,337.5 450,0 L 450,0 0,0 Z"
         id="path10"
         inkscape:connector-curvature="0" />
    </clipPath>
    <pattern
       id="WMFhbasepattern"
       patternUnits="userSpaceOnUse"
       width="6"
       height="6"
       x="0"
       y="0" />
  </defs>
  <path
     inkscape:connector-curvature="0"
     id="path4225"
     d="m 0.93741018,43.216662 0,-2.564667 53.00272382,0 53.002726,0 0,2.564667 0,2.564667 -53.002726,0 -53.00272382,0 0,-2.564667 z"
     style="fill:#3b608e" />
  <path
     inkscape:connector-curvature="0"
     id="path4223"
     d="m 0.89296518,40.788404 c 0.07413,-0.03227 1.09740092,-0.371877 2.27393002,-0.754677 l 2.1391429,-0.696001 48.7585389,0.01058 48.758543,0.01058 0.95328,0.310336 c 2.73949,0.891821 3.16132,1.032077 3.32136,1.104323 0.16993,0.07671 -1.07647,0.07849 -53.082784,0.07604 -45.5639192,-0.0021 -53.23732682,-0.01099 -53.12201082,-0.06119 z"
     style="fill:#2e4b6f" />
  <path
     style="fill:#000000;fill-opacity:1;fill-rule:evenodd;stroke:none"
     d="m 8.5974497,8.3672288 0,-0.705556 0,-0.705555 0.353766,-0.705556 0,-0.352778 0.353765,-0.352777 0.353766,-0.352778 0.3537653,-0.352778 0.353738,0 0,0 0,0 0.707531,0 0.353765,0.352778 0.353766,0.352778 0,0.352777 0.353766,0.352778 0.353737,0.705556 0,0.705555 0,0.705556 0,0 0,0.705555 0,0.705556 -0.353737,0.3527782 -0.353766,0.705555 0,0.352778 -0.353766,0.352778 -0.353765,0 -0.707531,0.352778 0,0 0,0 -0.353738,-0.352778 -0.3537653,0 -0.353766,-0.352778 -0.353765,-0.352778 0,-0.705555 -0.353766,-0.3527782 0,-0.705556 0,-0.705555 0,0 z"
     id="path19"
     inkscape:connector-curvature="0" />
  <path
     style="fill:#000000;fill-opacity:1;fill-rule:evenodd;stroke:none"
     d="m 8.5974497,18.597784 0,-1.411111 0,-1.411111 0.353766,-1.058333 0,-0.705556 0,-0.352778 0.353765,-0.705555 0,-0.352778 0,-0.352778 0.353766,-0.352777 0,-0.352778 0.3537653,0 0,0 0.353738,-0.352778 0,0 0,0 0,0.352778 0.353765,0 0,0 0.353766,0.352778 0,0.352777 0.353765,0.352778 0,0.352778 0,0.705555 0.353766,0.352778 0,0.705556 0,1.058333 0.353766,1.411111 0,1.411111 0,0 0,1.763889 -0.353766,1.058334 0,1.411111 0,0.705555 -0.353766,0.352778 0,0.352778 0,0.705555 -0.353765,0.352778 0,0.352778 -0.353766,0 0,0.352778 -0.353765,0 0,0 0,0 0,0 -0.353738,0 0,0 -0.3537653,-0.352778 0,0 -0.353766,-0.352778 0,-0.352778 0,-0.705555 -0.353765,-0.352778 0,-0.352778 0,-0.705555 -0.353766,-1.411111 0,-1.058334 0,-1.763889 0,0 z"
     id="path21"
     inkscape:connector-curvature="0" />
  <path
     style="fill:#000000;fill-opacity:1;fill-rule:evenodd;stroke:none"
     d="m 18.14912,17.186673 0.353625,1.411111 -5.306399,0.705556 -0.353766,-1.411111 z"
     id="path23"
     inkscape:connector-curvature="0" />
  <path
     style="fill:#000000;fill-opacity:1;fill-rule:evenodd;stroke:none"
     d="m 8.9512157,13.658895 1.0612963,-1.058333 4.952634,5.291667 -1.415034,1.058333 z"
     id="path25"
     inkscape:connector-curvature="0" />
  <path
     style="fill:#000000;fill-opacity:1;fill-rule:evenodd;stroke:none"
     d="m 8.9512157,24.242229 1.7687993,-0.352778 1.415063,8.113889 -1.415063,0.352778 z"
     id="path27"
     inkscape:connector-curvature="0" />
  <path
     style="fill:#000000;fill-opacity:1;fill-rule:evenodd;stroke:none"
     d="m 11.073781,30.945007 1.415034,0.705555 -2.476303,7.761111 -1.7687992,-0.352778 z"
     id="path29"
     inkscape:connector-curvature="0" />
  <path
     style="fill:#000000;fill-opacity:1;fill-rule:evenodd;stroke:none"
     d="m 8.9512157,38.35334 0,1.763889 3.1838623,0 0,-1.763889 -3.1838623,0 z"
     id="path31"
     inkscape:connector-curvature="0" />
  <path
     style="fill:#000000;fill-opacity:1;fill-rule:evenodd;stroke:none"
     d="m 84.655916,9.0727838 0,-0.705555 -0.353625,-0.705556 0,-0.705555 -0.353906,-0.352778 -0.353625,-0.352778 -0.353906,-0.352778 -0.353625,-0.352777 -0.353907,0 0,0 0,0 -0.353624,0 -0.353907,0.352777 -0.353624,0.352778 -0.353907,0.352778 -0.353624,0.352778 0,0.705555 -0.353907,0.705556 0,0.705555 0,0 0,0.705556 0.353907,0.7055552 0,0.352778 0.353624,0.705556 0.353907,0.352778 0.353624,0.352777 0.353907,0 0.353624,0.352778 0,0 0,0 0.353907,-0.352778 0.353625,0 0.353906,-0.352777 0.353625,-0.352778 0.353906,-0.705556 0,-0.352778 0.353625,-0.7055552 0,-0.705556 0,0 z"
     id="path33"
     inkscape:connector-curvature="0" />
  <path
     style="fill:#000000;fill-opacity:1;fill-rule:evenodd;stroke:none"
     d="m 84.302291,19.30334 0,-1.411111 0,-1.411111 0,-1.058334 -0.353906,-0.705555 0,-0.352778 0,-0.705556 -0.353625,-0.352777 0,-0.352778 -0.353906,-0.352778 0,-0.352778 0,0 -0.353625,0 0,-0.352777 0,0 0,0 -0.353907,0.352777 0,0 -0.353624,0 0,0.352778 -0.353907,0.352778 0,0.352778 -0.353624,0.352777 0,0.705556 0,0.352778 0,0.705555 -0.353907,1.058334 0,1.411111 0,1.411111 0,0 0,1.763889 0,1.058333 0.353907,1.411111 0,0.705556 0,0.352778 0,0.352777 0.353624,0.705556 0,0.352778 0.353907,0.352777 0,0 0.353624,0.352778 0,0 0.353907,0 0,0 0,0 0,0 0.353625,0 0,-0.352778 0,0 0.353906,-0.352777 0,-0.352778 0.353625,-0.705556 0,-0.352777 0,-0.352778 0.353906,-0.705556 0,-1.411111 0,-1.058333 0,-1.763889 0,0 z"
     id="path35"
     inkscape:connector-curvature="0" />
  <path
     style="fill:#000000;fill-opacity:1;fill-rule:evenodd;stroke:none"
     d="m 82.179698,13.306118 0,6.35 1.061156,0 0,-6.35 -1.061156,0 z"
     id="path37"
     inkscape:connector-curvature="0" />
  <path
     style="fill:#000000;fill-opacity:1;fill-rule:evenodd;stroke:none"
     d="M 81.11826,21.067229 81.825791,19.30334 77.580887,17.186673 76.519449,19.30334 Z"
     id="path39"
     inkscape:connector-curvature="0" />
  <path
     style="fill:#000000;fill-opacity:1;fill-rule:evenodd;stroke:none"
     d="m 83.948385,24.947784 -1.415063,-0.352777 -1.768686,8.113888 1.415062,0.352778 z"
     id="path41"
     inkscape:connector-curvature="0" />
  <path
     style="fill:#000000;fill-opacity:1;fill-rule:evenodd;stroke:none"
     d="m 81.825791,31.650562 -1.415062,0.705556 2.830125,7.761111 1.415062,-0.352778 z"
     id="path43"
     inkscape:connector-curvature="0" />
  <path
     style="fill:#000000;fill-opacity:1;fill-rule:evenodd;stroke:none"
     d="m 80.764636,39.058895 0,1.763889 3.537655,0 0,-1.763889 -3.537655,0 z"
     id="path45"
     inkscape:connector-curvature="0" />
  <g
     id="g4369"
     transform="translate(-53.382634,-4.78947)">
    <path
       inkscape:connector-curvature="0"
       id="path59"
       d="m 95.976418,13.306118 c 0,-0.47037 0,-0.940741 0,-1.411111 0.471537,-0.470427 0.943323,-0.940605 1.41478,-1.411112 0.27492,0.13455 0.459953,-0.185584 0.687709,-0.268941 0.333663,-0.06401 0.558698,0.307647 0.891865,0.272715 0.398693,0.02705 0.564909,0.448333 0.856087,0.656048 0.295581,0.196845 0.421011,0.538858 0.458811,0.875494 0.14289,0.291556 0.33469,0.577426 0.29401,0.920994 -0.0185,0.297852 0.0585,0.612983 -0.0934,0.887539 -0.12642,0.268018 -0.27489,0.536809 -0.29431,0.837538 -0.14683,0.372388 -0.562389,0.52885 -0.757313,0.868073 -0.260854,0.307906 -0.732653,0.205494 -1.023062,0.460342 -0.274574,0.223996 -0.500489,-0.07912 -0.715362,-0.174091 -0.289442,-0.06031 -0.564104,-0.211715 -0.727911,-0.462527 -0.327683,-0.333811 -0.660871,-0.662146 -0.991884,-0.992638 -4e-5,-0.352759 7.9e-5,-0.705644 -6e-5,-1.058323 z"
       style="fill:#000000;fill-opacity:1;fill-rule:evenodd;stroke:none" />
    <path
       inkscape:connector-curvature="0"
       id="path61"
       d="m 95.976418,21.930097 c 0.299633,-0.987951 0.450209,-2.031438 0.343036,-3.064515 0.01277,-0.69825 0.163983,-1.43957 0.633739,-1.969058 1.67e-4,-0.648487 0.509375,-1.213971 1.072058,-1.431176 0.58593,-0.03643 0.925549,0.59245 1.231613,1.017924 0.326888,0.607391 0.445482,1.303687 0.611459,1.968856 -0.01028,0.608487 0.02075,1.210843 0.267317,1.774647 0.18683,0.589627 0.0539,1.206728 0.0973,1.812218 0.006,0.791676 -0.10261,1.585343 -0.331543,2.338846 -0.0324,0.662156 -0.02316,1.359057 -0.352217,1.953027 -0.24476,0.603849 -0.472523,1.271707 -0.985693,1.690231 -0.627129,0.366468 -1.4943,-0.19583 -1.497426,-0.926731 -0.05828,-0.618359 -0.629194,-1.012667 -0.722178,-1.605786 -0.107738,-0.924707 0.13316,-1.871196 -0.11953,-2.783897 -0.0641,-0.264056 -0.151286,-0.521516 -0.247895,-0.774586 z"
       style="fill:#000000;fill-opacity:1;fill-rule:evenodd;stroke:none" />
    <path
       inkscape:connector-curvature="0"
       id="path63"
       d="m 105.01091,18.565622 0.70753,1.058334 -4.59909,4.233333 -0.70753,-1.058333 z"
       style="fill:#000000;fill-opacity:1;fill-rule:evenodd;stroke:none" />
    <path
       inkscape:transform-center-y="2.7768178"
       inkscape:transform-center-x="-1.0592085"
       inkscape:connector-curvature="0"
       id="path65"
       d="m 97.510117,17.567673 1.876812,-0.845541 2.643511,6.123356 -1.58614,1.046938 z"
       style="fill:#000000;fill-opacity:1;fill-rule:evenodd;stroke:none" />
    <path
       inkscape:transform-center-y="1.7507078"
       inkscape:transform-center-x="-2.391705"
       inkscape:connector-curvature="0"
       id="path67"
       d="m 97.420228,27.728208 0.958111,-1.484754 5.526971,4.721237 -1.41242,1.277147 z"
       style="fill:#000000;fill-opacity:1;fill-rule:evenodd;stroke:none" />
    <path
       inkscape:transform-center-y="1.9777351"
       inkscape:transform-center-x="1.8590695"
       inkscape:connector-curvature="0"
       id="path69"
       d="m 101.97091,30.047041 1.27754,1.412422 -4.857242,5.083285 -1.27755,-1.412423 z"
       style="fill:#000000;fill-opacity:1;fill-rule:evenodd;stroke:none" />
    <path
       inkscape:transform-center-y="0.7511375"
       inkscape:transform-center-x="-0.65681874"
       inkscape:connector-curvature="0"
       id="path71"
       d="m 98.355139,34.288728 -1.062268,0.928881 2.56167,2.929525 1.062269,-0.928882 -2.561671,-2.929524 z"
       style="fill:#000000;fill-opacity:1;fill-rule:evenodd;stroke:none" />
    <path
       inkscape:transform-center-y="1.1357536"
       inkscape:transform-center-x="-2.2343507"
       inkscape:connector-curvature="0"
       id="path73"
       d="m 97.90471,27.375074 0.760395,-1.915762 6.389095,3.104552 -0.97494,1.635718 z"
       style="fill:#000000;fill-opacity:1;fill-rule:evenodd;stroke:none" />
    <path
       inkscape:transform-center-y="0.92181381"
       inkscape:transform-center-x="2.8964785"
       inkscape:connector-curvature="0"
       id="path75"
       d="m 104.38668,27.954262 0.62324,1.799344 -6.458376,2.778854 -0.62324,-1.799337 z"
       style="fill:#000000;fill-opacity:1;fill-rule:evenodd;stroke:none" />
    <path
       inkscape:transform-center-y="0.44699887"
       inkscape:transform-center-x="-1.5837525"
       inkscape:connector-curvature="0"
       id="path77"
       d="m 102.60021,32.875836 -0.70123,1.224545 -3.376807,-1.933716 0.701231,-1.224544 3.376806,1.933715 z"
       style="fill:#000000;fill-opacity:1;fill-rule:evenodd;stroke:none" />
  </g>
  <path
     style="fill:none;fill-rule:evenodd;stroke:#8b8b8b;stroke-width:0.56444445;stroke-linecap:butt;stroke-linejoin:miter;stroke-opacity:1;stroke-miterlimit:4;stroke-dasharray:3.38666669, 1.12888889999999997;stroke-dashoffset:0"
     d="m 18.560657,18.159013 c 0,0 10.577579,-16.1657342 29.337813,-16.1657342 18.760234,0 29.337813,16.1657342 29.337813,16.1657342"
     id="path4347"
     inkscape:connector-curvature="0"
     sodipodi:nodetypes="czc" />
  <path
     sodipodi:nodetypes="czc"
     inkscape:connector-curvature="0"
     id="path4349"
     d="m 18.560657,18.298312 c 0,0 10.577579,16.165728 29.337813,16.165728 18.760234,0 29.337813,-16.165728 29.337813,-16.165728"
     style="fill:none;fill-rule:evenodd;stroke:#000000;stroke-width:0.56444445;stroke-linecap:butt;stroke-linejoin:miter;stroke-opacity:1;stroke-miterlimit:4;stroke-dasharray:none" />
</svg>
